# xmcd
#
# Track frame offsets:
# 150
# 14036
# 16003
# 28198
# 40777
# 54782
# 67651
# 84525
# 100250
# 113047
# 128713
# 141849
# 153486
# 167323
# 180304
# 214371
#
# Disc length: 2994 seconds
#
# Revision: 1
# Processed by: cddbd v1.4PL0 Copyright (c) Steve Scherf et al.
# Submitted via: CedeCatalogueitor 2.5 http://usuarios.lycos.es/kakasboy
#
DISCID=c30bb010
DTITLE=Los Tucanes De Tijunana - Corridos De Primera P
DYEAR=1900
DGENRE=Corridos
TTITLE0=Gripa Colombiana
TTITLE1=Mis Tres Viejas (Intro)
TTITLE2=Mis Tres Viejas
TTITLE3=El Guacho
TTITLE4=Gatos Rayados
TTITLE5=Chapita De Michoacan
TTITLE6=Cien Por Uno
TTITLE7=Los Guardaespaldas
TTITLE8=J.R.
TTITLE9=El Gran Jefe
TTITLE10=Operación Casablanca
TTITLE11=El Cruzador
TTITLE12=El Comandante De La Torre
TTITLE13=El Pesado
TTITLE14=El Cambio
TTITLE15=*
EXTD=
EXTT0=
EXTT1=
EXTT2=
EXTT3=
EXTT4=
EXTT5=
EXTT6=
EXTT7=
EXTT8=
EXTT9=
EXTT10=
EXTT11=
EXTT12=
EXTT13=
EXTT14=
EXTT15=
PLAYORDER=
